# xmcd CD database file
#
# Track frame offsets:
#	150
#	12725
#	27060
#	40307
#	53587
#	63610
#	79302
#	93662
#	105565
#	119732
#	131597
#	151272
#	174037
#	191065
#	204475
#	220407
#	233330
#	251850
#	264497
#	284922
#	300182
#	315937
#	327457
#
# Disc length: 4590 seconds
#
# Revision: 1
# Processed by: cddbd v1.5.2PL0 Copyright (c) Steve Scherf et al.
# Submitted via: CDex 1.51
#
DISCID=4811ec17
DTITLE=Various Artist - Dutch Jazz Masters - Leading ladies and gents
DYEAR=1999
DGENRE=Jazz
TTITLE0=Swing, Mr. Charlie - Topy Glerum and The Ramblers
TTITLE1=I never dream - Jan de Vries and Orkest Ernst van 't Hof
TTITLE2=I cover the waterfront - Nelly Verschuur and Dick Willebrandts en orkest
TTITLE3=It gotta be this or that - Sanny Day and Miller Sextet
TTITLE4=Five minutes more - Annie de Reuver and The Skymasters
TTITLE5=If you were the only girl - Ria Joy and Henk Scheffer and The Rhythm Club
TTITLE6=Lillian - Paul Ruys and The Millers
TTITLE7=Beat me Pia! Eight to the bar - Eddy Doorenbos and The Pia Beck Trio
TTITLE8=Deed I Do - Riedel van Kleef and Kwartet Ger van Leeuwen
TTITLE9=I'm getting sentimental over you - Rita Reys and Trio Pim Jacobs
TTITLE10=Who knows why - Greetje Kauffeld and Kwartet Tony Vos
TTITLE11=The party's over - Leddy Wessel and Jack van Poll and Tree-Oh
TTITLE12=Summertime - Rita Reys and Trio Pim Jacobs
TTITLE13=Under the blancket of blue - Francis van Rooy and The Dutch Swing College Band
TTITLE14=Miss Otis Regrets - Ann Burton
TTITLE15=Hey! Ba-ba-re-bob - Edwin Rutten
TTITLE16=Mr. Bojangles - Greetje Kauffeld and Orkets Rob Pronk
TTITLE17=Natuurjongetje (Nature Boy) - Pia Beck
TTITLE18=I do it for your love - Gé Titulaer
TTITLE19=Well you needn't - Soesja Citroen
TTITLE20=Just in time - Denise Jannah
TTITLE21=My ship - Astrid Seriese
TTITLE22=When lights are low - Ronald Douglas
EXTD=YEAR: 1999
EXTT0=
EXTT1=
EXTT2=
EXTT3=
EXTT4=
EXTT5=
EXTT6=
EXTT7=
EXTT8=
EXTT9=
EXTT10=
EXTT11=
EXTT12=
EXTT13=
EXTT14=
EXTT15=
EXTT16=
EXTT17=
EXTT18=
EXTT19=
EXTT20=
EXTT21=
EXTT22=
PLAYORDER=
